<svg width="25" height="25" viewBox="0 0 25 25" fill="none" xmlns="http://www.w3.org/2000/svg">
<path d="M14 3V4V4V3ZM15 3L15 2V2L15 3ZM21 9H20H21ZM21 15H22H21ZM15 21V22V21ZM14 21V20V21ZM20.9384 16.7822L21.9261 16.9386L21.9261 16.9386L20.9384 16.7822ZM16.7822 20.9384L16.6257 19.9508L16.7822 20.9384ZM16.7822 3.06156L16.9386 2.07387H16.9386L16.7822 3.06156ZM20.9384 7.21783L21.9261 7.06139L21.9261 7.06139L20.9384 7.21783ZM10.3994 3.20007C9.95783 3.53176 9.86874 4.15862 10.2004 4.60021C10.5321 5.0418 11.159 5.13089 11.6006 4.7992L11 3.99963L10.3994 3.20007ZM11.6006 19.2008C11.159 18.8691 10.5321 18.9582 10.2004 19.3998C9.86874 19.8414 9.95783 20.4682 10.3994 20.7999L11 20.0004L11.6006 19.2008ZM17 13C17.5523 13 18 12.5523 18 12C18 11.4477 17.5523 11 17 11L17 12V13ZM4 12V11V11V12ZM6.37871 16.7836C6.81146 17.1267 7.44045 17.0541 7.78358 16.6213C8.12671 16.1885 8.05405 15.5596 7.62129 15.2164L7 16L6.37871 16.7836ZM5.23703 14.6022L4.61574 15.3857V15.3857L5.23703 14.6022ZM5.23703 9.39785L4.61574 8.61427V8.61427L5.23703 9.39785ZM7.62129 8.78358C8.05405 8.44045 8.12671 7.81147 7.78358 7.37871C7.44045 6.94595 6.81147 6.87329 6.37871 7.21642L7 8L7.62129 8.78358ZM3.01989 12.2507L2.03234 12.408L2.03235 12.408L3.01989 12.2507ZM3.01989 11.7493L2.03235 11.592L2.03234 11.592L3.01989 11.7493ZM3 12L2 12L3 12ZM14 3V4H15V3L15 2H14L14 3ZM21 9H20L20 15H21H22L22 9H21ZM15 21V20H14V21V22L15 22V21ZM21 15H20C20 15.9672 19.9969 16.3344 19.9508 16.6257L20.9384 16.7822L21.9261 16.9386C22.0031 16.4526 22 15.8908 22 15H21ZM15 21V22C15.8908 22 16.4526 22.0031 16.9386 21.9261L16.7822 20.9384L16.6257 19.9508C16.3344 19.9969 15.9672 20 15 20V21ZM20.9384 16.7822L19.9508 16.6257C19.6797 18.3373 18.3373 19.6797 16.6257 19.9508L16.7822 20.9384L16.9386 21.9261C19.506 21.5195 21.5195 19.506 21.9261 16.9386L20.9384 16.7822ZM15 3V4C15.9672 4 16.3344 4.0031 16.6257 4.04925L16.7822 3.06156L16.9386 2.07387C16.4526 1.9969 15.8908 2 15 2L15 3ZM21 9H22C22 8.10921 22.0031 7.54738 21.9261 7.06139L20.9384 7.21783L19.9508 7.37426C19.9969 7.6656 20 8.03278 20 9H21ZM16.7822 3.06156L16.6257 4.04925C18.3373 4.32033 19.6797 5.66269 19.9508 7.37426L20.9384 7.21783L21.9261 7.06139C21.5195 4.49404 19.506 2.4805 16.9386 2.07387L16.7822 3.06156ZM14 3L14 2C12.6504 2 11.4023 2.44677 10.3994 3.20007L11 3.99963L11.6006 4.7992C12.269 4.29712 13.0984 4 14 4V3ZM14 21V20C13.0984 20 12.269 19.7029 11.6006 19.2008L11 20.0004L10.3994 20.7999C11.4023 21.5532 12.6504 22 14 22V21ZM17 12L17 11L4 11V12V13L17 13V12ZM7 16L7.62129 15.2164L5.85833 13.8186L5.23703 14.6022L4.61574 15.3857L6.37871 16.7836L7 16ZM5.23703 9.39785L5.85832 10.1814L7.62129 8.78358L7 8L6.37871 7.21642L4.61574 8.61427L5.23703 9.39785ZM5.23703 14.6022L5.85833 13.8186C5.13622 13.246 4.66284 12.8687 4.34757 12.5547C4.03677 12.2451 4.01195 12.1217 4.00743 12.0933L3.01989 12.2507L2.03235 12.408C2.13607 13.059 2.51686 13.554 2.93608 13.9716C3.35083 14.3848 3.93191 14.8435 4.61574 15.3857L5.23703 14.6022ZM5.23703 9.39785L4.61574 8.61427C3.93191 9.15647 3.35084 9.61524 2.93608 10.0284C2.51686 10.446 2.13607 10.941 2.03235 11.592L3.01989 11.7493L4.00743 11.9067C4.01195 11.8783 4.03677 11.7549 4.34757 11.4453C4.66284 11.1313 5.13622 10.754 5.85832 10.1814L5.23703 9.39785ZM3.01989 12.2507L4.00743 12.0933C4.00244 12.0619 4 12.0308 4 12L3 12L2 12C2 12.1366 2.01083 12.2729 2.03234 12.408L3.01989 12.2507ZM3 12L4 12C4 11.9692 4.00244 11.9381 4.00743 11.9067L3.01989 11.7493L2.03234 11.592C2.01083 11.7271 2 11.8634 2 12L3 12ZM4 12V11H3V12V13H4V12Z" fill="#FF5353"/>
</svg>
